<?xml version="1.0" encoding="UTF-8" standalone="no"?>
<!DOCTYPE svg PUBLIC "-//W3C//DTD SVG 1.1//EN"
 "http://www.w3.org/Graphics/SVG/1.1/DTD/svg11.dtd">
<!-- Generated by graphviz version 2.40.1 (20161225.0304)
 -->
<!-- Title: state transitions Pages: 1 -->
<svg width="820pt" height="282pt"
 viewBox="0.00 0.00 820.14 282.00" xmlns="http://www.w3.org/2000/svg" xmlns:xlink="http://www.w3.org/1999/xlink">
<g id="graph0" class="graph" transform="scale(1 1) rotate(0) translate(4 278)">
<title>state transitions</title>
<polygon fill="#ffffff" stroke="transparent" points="-4,4 -4,-278 816.141,-278 816.141,4 -4,4"/>
<g id="clust1" class="cluster state regular">
<title>cluster_state_d</title>
<path fill="none" stroke="#000000" stroke-width="2" d="M20,-8C20,-8 787,-8 787,-8 793,-8 799,-14 799,-20 799,-20 799,-254 799,-254 799,-260 793,-266 787,-266 787,-266 20,-266 20,-266 14,-266 8,-260 8,-254 8,-254 8,-20 8,-20 8,-14 14,-8 20,-8"/>
<text text-anchor="start" x="384.3236" y="-247.2" font-family="Helvetica,sans-Serif" font-size="12.00" fill="#000000">state_d</text>
</g>
<!-- state_d -->
<!-- Idle -->
<g id="node2" class="node state regular">
<title>Idle</title>
<polygon fill="#ffffff" fill-opacity="0.003922" stroke="transparent" stroke-width="2" points="549,-228 493,-228 493,-192 549,-192 549,-228"/>
<text text-anchor="start" x="511.3304" y="-206.2" font-family="Helvetica,sans-Serif" font-size="12.00" fill="#000000">Idle</text>
<path fill="none" stroke="#000000" stroke-width="2" d="M505.3333,-193C505.3333,-193 536.6667,-193 536.6667,-193 542.3333,-193 548,-198.6667 548,-204.3333 548,-204.3333 548,-215.6667 548,-215.6667 548,-221.3333 542.3333,-227 536.6667,-227 536.6667,-227 505.3333,-227 505.3333,-227 499.6667,-227 494,-221.3333 494,-215.6667 494,-215.6667 494,-204.3333 494,-204.3333 494,-198.6667 499.6667,-193 505.3333,-193"/>
</g>
<!-- Go -->
<g id="node3" class="node state regular">
<title>Go</title>
<polygon fill="#ffffff" fill-opacity="0.003922" stroke="transparent" stroke-width="2" points="266,-134 210,-134 210,-98 266,-98 266,-134"/>
<text text-anchor="start" x="229.9972" y="-112.2" font-family="Helvetica,sans-Serif" font-size="12.00" fill="#000000">Go</text>
<path fill="none" stroke="#000000" stroke-width="2" d="M222.3333,-99C222.3333,-99 253.6667,-99 253.6667,-99 259.3333,-99 265,-104.6667 265,-110.3333 265,-110.3333 265,-121.6667 265,-121.6667 265,-127.3333 259.3333,-133 253.6667,-133 253.6667,-133 222.3333,-133 222.3333,-133 216.6667,-133 211,-127.3333 211,-121.6667 211,-121.6667 211,-110.3333 211,-110.3333 211,-104.6667 216.6667,-99 222.3333,-99"/>
</g>
<!-- Idle&#45;&gt;Go -->
<g id="edge1" class="edge transition">
<title>Idle&#45;&gt;Go</title>
<path fill="none" stroke="#000000" d="M492.989,-208.769C399.3541,-204.5206 102.3336,-189.914 88.578,-175 54.0264,-137.5388 144.9226,-123.4964 199.789,-118.5268"/>
<polygon fill="#000000" stroke="#000000" points="200.2339,-122.0018 209.905,-117.6752 199.6466,-115.0265 200.2339,-122.0018"/>
<text text-anchor="start" x="88" y="-160" font-family="Helvetica,sans-Serif" font-size="10.00" fill="#000000">cmd_valid_i &amp;&amp; halted_q_aligned_i &amp;&amp; !unsupported_command_i &#160;&#160;</text>
</g>
<!-- Resume -->
<g id="node4" class="node state regular">
<title>Resume</title>
<polygon fill="#ffffff" fill-opacity="0.003922" stroke="transparent" stroke-width="2" points="480,-134 414,-134 414,-98 480,-98 480,-134"/>
<text text-anchor="start" x="424.665" y="-112.2" font-family="Helvetica,sans-Serif" font-size="12.00" fill="#000000">Resume</text>
<path fill="none" stroke="#000000" stroke-width="2" d="M426.3333,-99C426.3333,-99 467.6667,-99 467.6667,-99 473.3333,-99 479,-104.6667 479,-110.3333 479,-110.3333 479,-121.6667 479,-121.6667 479,-127.3333 473.3333,-133 467.6667,-133 467.6667,-133 426.3333,-133 426.3333,-133 420.6667,-133 415,-127.3333 415,-121.6667 415,-121.6667 415,-110.3333 415,-110.3333 415,-104.6667 420.6667,-99 426.3333,-99"/>
</g>
<!-- Idle&#45;&gt;Resume -->
<g id="edge2" class="edge transition">
<title>Idle&#45;&gt;Resume</title>
<path fill="none" stroke="#000000" d="M492.8211,-206.0399C459.8539,-200.7626 408.2885,-190.279 396.718,-175 390.2784,-166.4965 391.7795,-160.4546 396.718,-151 399.1186,-146.4041 402.4283,-142.2893 406.2138,-138.6392"/>
<polygon fill="#000000" stroke="#000000" points="408.5183,-141.2749 413.9661,-132.188 404.0407,-135.8943 408.5183,-141.2749"/>
<text text-anchor="start" x="396" y="-166" font-family="Helvetica,sans-Serif" font-size="10.00" fill="#000000">resumereq_aligned_i &amp;&amp; !resuming_q_aligned_i &amp;&amp; &#160;&#160;</text>
<text text-anchor="start" x="396" y="-154" font-family="Helvetica,sans-Serif" font-size="10.00" fill="#000000">!haltreq_aligned_i &amp;&amp; halted_q_aligned_i &#160;&#160;</text>
</g>
<!-- CmdExecuting -->
<g id="node5" class="node state regular">
<title>CmdExecuting</title>
<polygon fill="#ffffff" fill-opacity="0.003922" stroke="transparent" stroke-width="2" points="491,-52 391,-52 391,-16 491,-16 491,-52"/>
<text text-anchor="start" x="401.994" y="-30.2" font-family="Helvetica,sans-Serif" font-size="12.00" fill="#000000">CmdExecuting</text>
<path fill="none" stroke="#000000" stroke-width="2" d="M403.3333,-17C403.3333,-17 478.6667,-17 478.6667,-17 484.3333,-17 490,-22.6667 490,-28.3333 490,-28.3333 490,-39.6667 490,-39.6667 490,-45.3333 484.3333,-51 478.6667,-51 478.6667,-51 403.3333,-51 403.3333,-51 397.6667,-51 392,-45.3333 392,-39.6667 392,-39.6667 392,-28.3333 392,-28.3333 392,-22.6667 397.6667,-17 403.3333,-17"/>
</g>
<!-- Go&#45;&gt;CmdExecuting -->
<g id="edge3" class="edge transition">
<title>Go&#45;&gt;CmdExecuting</title>
<path fill="none" stroke="#000000" d="M266.2263,-104.5983C297.2597,-92.0626 347.8613,-71.6225 386.6507,-55.9539"/>
<polygon fill="#000000" stroke="#000000" points="388.2776,-59.0716 396.2388,-52.0809 385.6558,-52.5811 388.2776,-59.0716"/>
<text text-anchor="start" x="352" y="-72" font-family="Helvetica,sans-Serif" font-size="10.00" fill="#000000">going_i &#160;&#160;</text>
</g>
<!-- Resume&#45;&gt;Idle -->
<g id="edge4" class="edge transition">
<title>Resume&#45;&gt;Idle</title>
<path fill="none" stroke="#000000" d="M480.2043,-117.2582C528.8156,-119.8767 615.6908,-127.7642 635,-151 641.8174,-159.2037 641.3397,-166.4218 635,-175 630.281,-181.3852 590.285,-192.6851 558.9833,-200.7173"/>
<polygon fill="#000000" stroke="#000000" points="558.0161,-197.3516 549.1816,-203.1999 559.7349,-204.1373 558.0161,-197.3516"/>
<text text-anchor="start" x="639" y="-160" font-family="Helvetica,sans-Serif" font-size="10.00" fill="#000000">resuming_q_aligned_i &#160;&#160;</text>
</g>
<!-- CmdExecuting&#45;&gt;Idle -->
<g id="edge5" class="edge transition">
<title>CmdExecuting&#45;&gt;Idle</title>
<path fill="none" stroke="#000000" d="M491.1959,-45.6928C570.7031,-65.3435 719.7244,-107.1631 750,-151 789.2753,-207.8678 668.1341,-180.4139 600,-192 586.5407,-194.2887 571.932,-197.4292 558.9799,-200.4467"/>
<polygon fill="#000000" stroke="#000000" points="557.9192,-197.1013 549.0013,-202.8216 559.54,-203.9111 557.9192,-197.1013"/>
<text text-anchor="start" x="731" y="-113" font-family="Helvetica,sans-Serif" font-size="10.00" fill="#000000">halted_aligned_i &#160;&#160;</text>
</g>
</g>
</svg>
