<?xml version="1.0" encoding="UTF-8" standalone="no"?>
<!DOCTYPE svg PUBLIC "-//W3C//DTD SVG 1.1//EN"
 "http://www.w3.org/Graphics/SVG/1.1/DTD/svg11.dtd">
<!-- Generated by graphviz version 2.40.1 (20161225.0304)
 -->
<!-- Title: state transitions Pages: 1 -->
<svg width="668pt" height="282pt"
 viewBox="0.00 0.00 667.57 282.00" xmlns="http://www.w3.org/2000/svg" xmlns:xlink="http://www.w3.org/1999/xlink">
<g id="graph0" class="graph" transform="scale(1 1) rotate(0) translate(4 278)">
<title>state transitions</title>
<polygon fill="#ffffff" stroke="transparent" points="-4,4 -4,-278 663.565,-278 663.565,4 -4,4"/>
<g id="clust1" class="cluster state regular">
<title>cluster_state_d</title>
<path fill="none" stroke="#000000" stroke-width="2" d="M20,-8C20,-8 594,-8 594,-8 600,-8 606,-14 606,-20 606,-20 606,-254 606,-254 606,-260 600,-266 594,-266 594,-266 20,-266 20,-266 14,-266 8,-260 8,-254 8,-254 8,-20 8,-20 8,-14 14,-8 20,-8"/>
<text text-anchor="start" x="287.8236" y="-247.2" font-family="Helvetica,sans-Serif" font-size="12.00" fill="#000000">state_d</text>
</g>
<!-- state_d -->
<!-- Idle -->
<g id="node2" class="node state regular">
<title>Idle</title>
<polygon fill="#ffffff" fill-opacity="0.003922" stroke="transparent" stroke-width="2" points="229,-228 173,-228 173,-192 229,-192 229,-228"/>
<text text-anchor="start" x="191.3304" y="-206.2" font-family="Helvetica,sans-Serif" font-size="12.00" fill="#000000">Idle</text>
<path fill="none" stroke="#000000" stroke-width="2" d="M185.3333,-193C185.3333,-193 216.6667,-193 216.6667,-193 222.3333,-193 228,-198.6667 228,-204.3333 228,-204.3333 228,-215.6667 228,-215.6667 228,-221.3333 222.3333,-227 216.6667,-227 216.6667,-227 185.3333,-227 185.3333,-227 179.6667,-227 174,-221.3333 174,-215.6667 174,-215.6667 174,-204.3333 174,-204.3333 174,-198.6667 179.6667,-193 185.3333,-193"/>
</g>
<!-- Read -->
<g id="node3" class="node state regular">
<title>Read</title>
<polygon fill="#ffffff" fill-opacity="0.003922" stroke="transparent" stroke-width="2" points="192,-134 136,-134 136,-98 192,-98 192,-134"/>
<text text-anchor="start" x="149.6624" y="-112.2" font-family="Helvetica,sans-Serif" font-size="12.00" fill="#000000">Read</text>
<path fill="none" stroke="#000000" stroke-width="2" d="M148.3333,-99C148.3333,-99 179.6667,-99 179.6667,-99 185.3333,-99 191,-104.6667 191,-110.3333 191,-110.3333 191,-121.6667 191,-121.6667 191,-127.3333 185.3333,-133 179.6667,-133 179.6667,-133 148.3333,-133 148.3333,-133 142.6667,-133 137,-127.3333 137,-121.6667 137,-121.6667 137,-110.3333 137,-110.3333 137,-104.6667 142.6667,-99 148.3333,-99"/>
</g>
<!-- Idle&#45;&gt;Read -->
<g id="edge1" class="edge transition">
<title>Idle&#45;&gt;Read</title>
<path fill="none" stroke="#000000" d="M172.7796,-205.866C140.4103,-200.4795 90.3409,-189.951 79.078,-175 72.6599,-166.4803 73.1441,-159.8638 79.078,-151 79.4588,-150.4311 103.8853,-140.3941 126.4409,-131.2144"/>
<polygon fill="#000000" stroke="#000000" points="127.9712,-134.3705 135.9175,-127.3628 125.3355,-127.8856 127.9712,-134.3705"/>
<text text-anchor="start" x="79" y="-166" font-family="Helvetica,sans-Serif" font-size="10.00" fill="#000000">dmi[1:0] == DTM_READ &#160;&#160;</text>
<text text-anchor="start" x="79" y="-154" font-family="Helvetica,sans-Serif" font-size="10.00" fill="#000000">dmi_select &amp;&amp; update &amp;&amp; (error_q == DMINoError) &#160;&#160;</text>
</g>
<!-- Write -->
<g id="node5" class="node state regular">
<title>Write</title>
<polygon fill="#ffffff" fill-opacity="0.003922" stroke="transparent" stroke-width="2" points="389,-134 333,-134 333,-98 389,-98 389,-134"/>
<text text-anchor="start" x="347.005" y="-112.2" font-family="Helvetica,sans-Serif" font-size="12.00" fill="#000000">Write</text>
<path fill="none" stroke="#000000" stroke-width="2" d="M345.3333,-99C345.3333,-99 376.6667,-99 376.6667,-99 382.3333,-99 388,-104.6667 388,-110.3333 388,-110.3333 388,-121.6667 388,-121.6667 388,-127.3333 382.3333,-133 376.6667,-133 376.6667,-133 345.3333,-133 345.3333,-133 339.6667,-133 334,-127.3333 334,-121.6667 334,-121.6667 334,-110.3333 334,-110.3333 334,-104.6667 339.6667,-99 345.3333,-99"/>
</g>
<!-- Idle&#45;&gt;Write -->
<g id="edge2" class="edge transition">
<title>Idle&#45;&gt;Write</title>
<path fill="none" stroke="#000000" d="M229.0325,-206.0817C253.2186,-201.6446 288.2221,-192.607 314,-175 326.323,-166.5831 336.9879,-153.9691 345.0292,-142.5623"/>
<polygon fill="#000000" stroke="#000000" points="347.9966,-144.4212 350.651,-134.1643 342.1796,-140.5272 347.9966,-144.4212"/>
<text text-anchor="start" x="338" y="-166" font-family="Helvetica,sans-Serif" font-size="10.00" fill="#000000">dmi[1:0] == DTM_WRITE &#160;&#160;</text>
<text text-anchor="start" x="338" y="-154" font-family="Helvetica,sans-Serif" font-size="10.00" fill="#000000">dmi_select &amp;&amp; update &amp;&amp; (error_q == DMINoError) &#160;&#160;</text>
</g>
<!-- WaitReadValid -->
<g id="node4" class="node state regular">
<title>WaitReadValid</title>
<polygon fill="#ffffff" fill-opacity="0.003922" stroke="transparent" stroke-width="2" points="146.5,-52 45.5,-52 45.5,-16 146.5,-16 146.5,-52"/>
<text text-anchor="start" x="56.8298" y="-30.2" font-family="Helvetica,sans-Serif" font-size="12.00" fill="#000000">WaitReadValid</text>
<path fill="none" stroke="#000000" stroke-width="2" d="M57.8333,-17C57.8333,-17 134.1667,-17 134.1667,-17 139.8333,-17 145.5,-22.6667 145.5,-28.3333 145.5,-28.3333 145.5,-39.6667 145.5,-39.6667 145.5,-45.3333 139.8333,-51 134.1667,-51 134.1667,-51 57.8333,-51 57.8333,-51 52.1667,-51 46.5,-45.3333 46.5,-39.6667 46.5,-39.6667 46.5,-28.3333 46.5,-28.3333 46.5,-22.6667 52.1667,-17 57.8333,-17"/>
</g>
<!-- Read&#45;&gt;WaitReadValid -->
<g id="edge3" class="edge transition">
<title>Read&#45;&gt;WaitReadValid</title>
<path fill="none" stroke="#000000" d="M148.9086,-97.8015C139.6647,-86.6545 127.6866,-72.2103 117.4657,-59.8851"/>
<polygon fill="#000000" stroke="#000000" points="120.1268,-57.611 111.0492,-52.1476 114.7385,-62.0794 120.1268,-57.611"/>
<text text-anchor="start" x="134" y="-72" font-family="Helvetica,sans-Serif" font-size="10.00" fill="#000000">dmi_req_ready &#160;&#160;</text>
</g>
<!-- WaitReadValid&#45;&gt;Idle -->
<g id="edge4" class="edge transition">
<title>WaitReadValid&#45;&gt;Idle</title>
<path fill="none" stroke="#000000" d="M77.9962,-52.0901C67.4359,-64.0255 55.0883,-80.621 49.435,-98 38.5123,-131.5778 44.8845,-149.2082 69,-175 81.6932,-188.5755 128.3479,-198.6504 162.6054,-204.4206"/>
<polygon fill="#000000" stroke="#000000" points="162.3563,-207.9259 172.7877,-206.0723 163.4772,-201.0162 162.3563,-207.9259"/>
<text text-anchor="start" x="49" y="-113" font-family="Helvetica,sans-Serif" font-size="10.00" fill="#000000">dmi_resp_valid &#160;&#160;</text>
</g>
<!-- WaitWriteValid -->
<g id="node6" class="node state regular">
<title>WaitWriteValid</title>
<polygon fill="#ffffff" fill-opacity="0.003922" stroke="transparent" stroke-width="2" points="502,-52 402,-52 402,-16 502,-16 502,-52"/>
<text text-anchor="start" x="412.6724" y="-30.2" font-family="Helvetica,sans-Serif" font-size="12.00" fill="#000000">WaitWriteValid</text>
<path fill="none" stroke="#000000" stroke-width="2" d="M414.3333,-17C414.3333,-17 489.6667,-17 489.6667,-17 495.3333,-17 501,-22.6667 501,-28.3333 501,-28.3333 501,-39.6667 501,-39.6667 501,-45.3333 495.3333,-51 489.6667,-51 489.6667,-51 414.3333,-51 414.3333,-51 408.6667,-51 403,-45.3333 403,-39.6667 403,-39.6667 403,-28.3333 403,-28.3333 403,-22.6667 408.6667,-17 414.3333,-17"/>
</g>
<!-- Write&#45;&gt;WaitWriteValid -->
<g id="edge5" class="edge transition">
<title>Write&#45;&gt;WaitWriteValid</title>
<path fill="none" stroke="#000000" d="M381.1958,-97.8015C393.802,-86.4422 410.2079,-71.6588 424.0529,-59.1831"/>
<polygon fill="#000000" stroke="#000000" points="426.7747,-61.4419 431.8606,-52.1476 422.0887,-56.2417 426.7747,-61.4419"/>
<text text-anchor="start" x="412" y="-72" font-family="Helvetica,sans-Serif" font-size="10.00" fill="#000000">dmi_req_ready &#160;&#160;</text>
</g>
<!-- WaitWriteValid&#45;&gt;Idle -->
<g id="edge6" class="edge transition">
<title>WaitWriteValid&#45;&gt;Idle</title>
<path fill="none" stroke="#000000" d="M488.2813,-52.049C538.1365,-79.1056 617.3168,-131.6344 577,-175 559.3256,-194.011 369.8305,-189.4338 344,-192 308.407,-195.5361 267.9771,-200.7354 239.2095,-204.638"/>
<polygon fill="#000000" stroke="#000000" points="238.6023,-201.1884 229.1691,-206.0117 239.5512,-208.1238 238.6023,-201.1884"/>
<text text-anchor="start" x="584" y="-113" font-family="Helvetica,sans-Serif" font-size="10.00" fill="#000000">dmi_resp_valid &#160;&#160;</text>
</g>
</g>
</svg>
