<?xml version="1.0" encoding="UTF-8" standalone="no"?>
<!DOCTYPE svg PUBLIC "-//W3C//DTD SVG 1.1//EN"
 "http://www.w3.org/Graphics/SVG/1.1/DTD/svg11.dtd">
<!-- Generated by graphviz version 2.40.1 (20161225.0304)
 -->
<!-- Title: state transitions Pages: 1 -->
<svg width="672pt" height="528pt"
 viewBox="0.00 0.00 672.22 528.00" xmlns="http://www.w3.org/2000/svg" xmlns:xlink="http://www.w3.org/1999/xlink">
<g id="graph0" class="graph" transform="scale(1 1) rotate(0) translate(4 524)">
<title>state transitions</title>
<polygon fill="#ffffff" stroke="transparent" points="-4,4 -4,-524 668.225,-524 668.225,4 -4,4"/>
<g id="clust1" class="cluster state regular">
<title>cluster_state_d</title>
<path fill="none" stroke="#000000" stroke-width="2" d="M20,-8C20,-8 599,-8 599,-8 605,-8 611,-14 611,-20 611,-20 611,-500 611,-500 611,-506 605,-512 599,-512 599,-512 20,-512 20,-512 14,-512 8,-506 8,-500 8,-500 8,-20 8,-20 8,-14 14,-8 20,-8"/>
<text text-anchor="start" x="290.3236" y="-493.2" font-family="Helvetica,sans-Serif" font-size="12.00" fill="#000000">state_d</text>
</g>
<!-- state_d -->
<!-- Running -->
<g id="node2" class="node state regular">
<title>Running</title>
<polygon fill="#ffffff" fill-opacity="0.003922" stroke="transparent" stroke-width="2" points="279,-474 213,-474 213,-438 279,-438 279,-474"/>
<text text-anchor="start" x="223.6602" y="-452.2" font-family="Helvetica,sans-Serif" font-size="12.00" fill="#000000">Running</text>
<path fill="none" stroke="#000000" stroke-width="2" d="M225.3333,-439C225.3333,-439 266.6667,-439 266.6667,-439 272.3333,-439 278,-444.6667 278,-450.3333 278,-450.3333 278,-461.6667 278,-461.6667 278,-467.3333 272.3333,-473 266.6667,-473 266.6667,-473 225.3333,-473 225.3333,-473 219.6667,-473 214,-467.3333 214,-461.6667 214,-461.6667 214,-450.3333 214,-450.3333 214,-444.6667 219.6667,-439 225.3333,-439"/>
</g>
<!-- Entering_step -->
<g id="node3" class="node state regular">
<title>Entering_step</title>
<polygon fill="#ffffff" fill-opacity="0.003922" stroke="transparent" stroke-width="2" points="495,-310 399,-310 399,-274 495,-274 495,-310"/>
<text text-anchor="start" x="409.9872" y="-288.2" font-family="Helvetica,sans-Serif" font-size="12.00" fill="#000000">Entering_step</text>
<path fill="none" stroke="#000000" stroke-width="2" d="M411.3333,-275C411.3333,-275 482.6667,-275 482.6667,-275 488.3333,-275 494,-280.6667 494,-286.3333 494,-286.3333 494,-297.6667 494,-297.6667 494,-303.3333 488.3333,-309 482.6667,-309 482.6667,-309 411.3333,-309 411.3333,-309 405.6667,-309 400,-303.3333 400,-297.6667 400,-297.6667 400,-286.3333 400,-286.3333 400,-280.6667 405.6667,-275 411.3333,-275"/>
</g>
<!-- Running&#45;&gt;Entering_step -->
<g id="edge6" class="edge transition">
<title>Running&#45;&gt;Entering_step</title>
<path fill="none" stroke="#000000" d="M268.2413,-437.8745C270.9572,-435.3328 273.6126,-432.6729 276,-430 302.5705,-400.252 297.0341,-382.5784 326.775,-356 345.8276,-338.9734 370.2175,-324.9175 392.0438,-314.3582"/>
<polygon fill="#000000" stroke="#000000" points="393.6552,-317.4683 401.218,-310.0484 390.6788,-311.1325 393.6552,-317.4683"/>
<text text-anchor="start" x="326" y="-371" font-family="Helvetica,sans-Serif" font-size="10.00" fill="#000000">not (stall_i) &#160;&#160;</text>
</g>
<!-- Entering_halt -->
<g id="node4" class="node state regular">
<title>Entering_halt</title>
<polygon fill="#ffffff" fill-opacity="0.003922" stroke="transparent" stroke-width="2" points="405,-52 313,-52 313,-16 405,-16 405,-52"/>
<text text-anchor="start" x="323.6558" y="-30.2" font-family="Helvetica,sans-Serif" font-size="12.00" fill="#000000">Entering_halt</text>
<path fill="none" stroke="#000000" stroke-width="2" d="M325.3333,-17C325.3333,-17 392.6667,-17 392.6667,-17 398.3333,-17 404,-22.6667 404,-28.3333 404,-28.3333 404,-39.6667 404,-39.6667 404,-45.3333 398.3333,-51 392.6667,-51 392.6667,-51 325.3333,-51 325.3333,-51 319.6667,-51 314,-45.3333 314,-39.6667 314,-39.6667 314,-28.3333 314,-28.3333 314,-22.6667 319.6667,-17 325.3333,-17"/>
</g>
<!-- Running&#45;&gt;Entering_halt -->
<g id="edge2" class="edge transition">
<title>Running&#45;&gt;Entering_halt</title>
<path fill="none" stroke="#000000" d="M212.7014,-453.4385C149.1888,-448.103 17,-434.6392 17,-415 17,-415 17,-415 17,-318.5 17,-280.8794 38,-274.1206 38,-236.5 38,-236.5 38,-236.5 38,-75 38,-48.6348 210.5895,-38.8903 302.6645,-35.5676"/>
<polygon fill="#000000" stroke="#000000" points="302.7941,-39.0653 312.6667,-35.2205 302.5512,-32.0695 302.7941,-39.0653"/>
<text text-anchor="start" x="38" y="-248" font-family="Helvetica,sans-Serif" font-size="10.00" fill="#000000">not (debug_trigger_match_i) &#160;&#160;</text>
</g>
<!-- Running&#45;&gt;Entering_halt -->
<g id="edge4" class="edge transition">
<title>Running&#45;&gt;Entering_halt</title>
<path fill="none" stroke="#000000" d="M246,-437.6312C246,-430.5574 246,-422.4028 246,-415 246,-415 246,-415 246,-347.5 246,-329.8547 264.1715,-334.7986 280,-327 289.8467,-322.1486 292.4397,-320.9958 303,-318 322.1216,-312.5755 334.2644,-325.26 347,-310 357.252,-297.716 350.4524,-289.6231 347,-274 345.6914,-268.0781 302.3086,-180.9219 301,-175 298.6984,-164.5846 296.1964,-160.5238 301,-151 306.7244,-139.6505 316.4549,-144.23 324,-134 339.7845,-112.5986 348.9033,-83.4763 353.851,-62.1794"/>
<polygon fill="#000000" stroke="#000000" points="357.3314,-62.6428 356.0137,-52.1302 350.4881,-61.17 357.3314,-62.6428"/>
<text text-anchor="start" x="339" y="-248" font-family="Helvetica,sans-Serif" font-size="10.00" fill="#000000">not (stall_i) &#160;&#160;</text>
</g>
<!-- Running&#45;&gt;Entering_halt -->
<g id="edge8" class="edge transition">
<title>Running&#45;&gt;Entering_halt</title>
<path fill="none" stroke="#000000" d="M279.1719,-453.0405C367.549,-445.0465 602,-423.0781 602,-415 602,-415 602,-415 602,-318.5 602,-219.8211 638.2945,-174.5305 576,-98 555.7082,-73.0709 472.6615,-53.8576 415.3987,-43.2414"/>
<polygon fill="#000000" stroke="#000000" points="415.8468,-39.7656 405.3823,-41.4228 414.5962,-46.653 415.8468,-39.7656"/>
<text text-anchor="start" x="607" y="-248" font-family="Helvetica,sans-Serif" font-size="10.00" fill="#000000">not (stall_i) &#160;&#160;</text>
</g>
<!-- Wait_stall_halt -->
<g id="node6" class="node state regular">
<title>Wait_stall_halt</title>
<polygon fill="#ffffff" fill-opacity="0.003922" stroke="transparent" stroke-width="2" points="232,-134 132,-134 132,-98 232,-98 232,-134"/>
<text text-anchor="start" x="142.9964" y="-112.2" font-family="Helvetica,sans-Serif" font-size="12.00" fill="#000000">Wait_stall_halt</text>
<path fill="none" stroke="#000000" stroke-width="2" d="M144.3333,-99C144.3333,-99 219.6667,-99 219.6667,-99 225.3333,-99 231,-104.6667 231,-110.3333 231,-110.3333 231,-121.6667 231,-121.6667 231,-127.3333 225.3333,-133 219.6667,-133 219.6667,-133 144.3333,-133 144.3333,-133 138.6667,-133 133,-127.3333 133,-121.6667 133,-121.6667 133,-110.3333 133,-110.3333 133,-104.6667 138.6667,-99 144.3333,-99"/>
</g>
<!-- Running&#45;&gt;Wait_stall_halt -->
<g id="edge1" class="edge transition">
<title>Running&#45;&gt;Wait_stall_halt</title>
<path fill="none" stroke="#000000" d="M226.8594,-437.6697C221.9375,-431.1091 218,-423.2748 218,-415 218,-415 218,-415 218,-318.5 218,-280.3994 243,-274.6006 243,-236.5 243,-236.5 243,-236.5 243,-163 243,-154.1596 238.9301,-146.7504 232.8929,-140.6228"/>
<polygon fill="#000000" stroke="#000000" points="234.9342,-137.7664 225.0279,-134.0093 230.4291,-143.124 234.9342,-137.7664"/>
<text text-anchor="start" x="232" y="-295" font-family="Helvetica,sans-Serif" font-size="10.00" fill="#000000">stall_i &#160;&#160;</text>
<text text-anchor="start" x="232" y="-283" font-family="Helvetica,sans-Serif" font-size="10.00" fill="#000000">debug_trigger_match_i &#160;&#160;</text>
</g>
<!-- Running&#45;&gt;Wait_stall_halt -->
<g id="edge3" class="edge transition">
<title>Running&#45;&gt;Wait_stall_halt</title>
<path fill="none" stroke="#000000" d="M212.7518,-449.7506C181.6654,-442.9299 140,-430.8345 140,-415 140,-415 140,-415 140,-318.5 140,-280.0016 172.9698,-283.39 201,-257 209.828,-248.6886 219,-248.6249 219,-236.5 219,-236.5 219,-236.5 219,-163 219,-155.4321 216.0017,-148.3642 211.7121,-142.1249"/>
<polygon fill="#000000" stroke="#000000" points="214.2529,-139.7023 205.2226,-134.1612 208.8264,-144.1243 214.2529,-139.7023"/>
<text text-anchor="start" x="176" y="-289" font-family="Helvetica,sans-Serif" font-size="10.00" fill="#000000">stall_i &#160;&#160;</text>
</g>
<!-- Running&#45;&gt;Wait_stall_halt -->
<g id="edge7" class="edge transition">
<title>Running&#45;&gt;Wait_stall_halt</title>
<path fill="none" stroke="#000000" d="M212.679,-451.9492C159.6552,-445.0455 62,-430.2594 62,-415 62,-415 62,-415 62,-318.5 62,-292.1697 78.4589,-287.426 101.109,-274 139.763,-251.0875 195,-281.4346 195,-236.5 195,-236.5 195,-236.5 195,-163 195,-156.8171 193.942,-150.3369 192.4297,-144.2321"/>
<polygon fill="#000000" stroke="#000000" points="195.7295,-143.0463 189.5622,-134.4316 189.0112,-145.0121 195.7295,-143.0463"/>
<text text-anchor="start" x="101" y="-289" font-family="Helvetica,sans-Serif" font-size="10.00" fill="#000000">stall_i &#160;&#160;</text>
</g>
<!-- Wait_stall_step -->
<g id="node7" class="node state regular">
<title>Wait_stall_step</title>
<polygon fill="#ffffff" fill-opacity="0.003922" stroke="transparent" stroke-width="2" points="497.5,-392 394.5,-392 394.5,-356 497.5,-356 497.5,-392"/>
<text text-anchor="start" x="405.8278" y="-370.2" font-family="Helvetica,sans-Serif" font-size="12.00" fill="#000000">Wait_stall_step</text>
<path fill="none" stroke="#000000" stroke-width="2" d="M406.8333,-357C406.8333,-357 485.1667,-357 485.1667,-357 490.8333,-357 496.5,-362.6667 496.5,-368.3333 496.5,-368.3333 496.5,-379.6667 496.5,-379.6667 496.5,-385.3333 490.8333,-391 485.1667,-391 485.1667,-391 406.8333,-391 406.8333,-391 401.1667,-391 395.5,-385.3333 395.5,-379.6667 395.5,-379.6667 395.5,-368.3333 395.5,-368.3333 395.5,-362.6667 401.1667,-357 406.8333,-357"/>
</g>
<!-- Running&#45;&gt;Wait_stall_step -->
<g id="edge5" class="edge transition">
<title>Running&#45;&gt;Wait_stall_step</title>
<path fill="none" stroke="#000000" d="M279.0862,-445.2265C292.2278,-440.7667 307.4204,-435.3837 321,-430 347.0347,-419.6784 375.5708,-407.0015 398.7965,-396.3209"/>
<polygon fill="#000000" stroke="#000000" points="400.4659,-399.4051 408.0737,-392.0313 397.528,-393.0514 400.4659,-399.4051"/>
<text text-anchor="start" x="369" y="-412" font-family="Helvetica,sans-Serif" font-size="10.00" fill="#000000">stall_i &#160;&#160;</text>
</g>
<!-- Entering_step&#45;&gt;Entering_step -->
<g id="edge10" class="edge transition">
<title>Entering_step&#45;&gt;Entering_step</title>
<path fill="none" stroke="#000000" d="M495.0939,-296.8247C507.5828,-296.5282 517,-294.9199 517,-292 517,-289.9469 512.3443,-288.5423 505.2386,-287.7862"/>
<polygon fill="#000000" stroke="#000000" points="505.2863,-284.2828 495.0939,-287.1753 504.8654,-291.2702 505.2863,-284.2828"/>
<text text-anchor="start" x="517" y="-289" font-family="Helvetica,sans-Serif" font-size="10.00" fill="#000000">not (halted_i) &#160;&#160;</text>
</g>
<!-- Halted -->
<g id="node5" class="node state regular">
<title>Halted</title>
<polygon fill="#ffffff" fill-opacity="0.003922" stroke="transparent" stroke-width="2" points="472,-228 416,-228 416,-192 472,-192 472,-228"/>
<text text-anchor="start" x="426.6636" y="-206.2" font-family="Helvetica,sans-Serif" font-size="12.00" fill="#000000">Halted</text>
<path fill="none" stroke="#000000" stroke-width="2" d="M428.3333,-193C428.3333,-193 459.6667,-193 459.6667,-193 465.3333,-193 471,-198.6667 471,-204.3333 471,-204.3333 471,-215.6667 471,-215.6667 471,-221.3333 465.3333,-227 459.6667,-227 459.6667,-227 428.3333,-227 428.3333,-227 422.6667,-227 417,-221.3333 417,-215.6667 417,-215.6667 417,-204.3333 417,-204.3333 417,-198.6667 422.6667,-193 428.3333,-193"/>
</g>
<!-- Entering_step&#45;&gt;Halted -->
<g id="edge9" class="edge transition">
<title>Entering_step&#45;&gt;Halted</title>
<path fill="none" stroke="#000000" d="M446.3342,-273.8015C445.9536,-263.3976 445.4679,-250.1215 445.0382,-238.3768"/>
<polygon fill="#000000" stroke="#000000" points="448.5273,-238.0129 444.6639,-228.1476 441.532,-238.2689 448.5273,-238.0129"/>
<text text-anchor="start" x="445" y="-248" font-family="Helvetica,sans-Serif" font-size="10.00" fill="#000000">halted_i &#160;&#160;</text>
</g>
<!-- Entering_halt&#45;&gt;Entering_halt -->
<g id="edge12" class="edge transition">
<title>Entering_halt&#45;&gt;Entering_halt</title>
<path fill="none" stroke="#000000" d="M405.0842,-38.839C417.5309,-38.5837 427,-36.9707 427,-34 427,-31.9112 422.3186,-30.4937 415.2124,-29.7474"/>
<polygon fill="#000000" stroke="#000000" points="415.2698,-26.2449 405.0842,-29.161 414.8651,-33.2332 415.2698,-26.2449"/>
<text text-anchor="start" x="427" y="-31" font-family="Helvetica,sans-Serif" font-size="10.00" fill="#000000">not (halted_i) &#160;&#160;</text>
</g>
<!-- Entering_halt&#45;&gt;Halted -->
<g id="edge11" class="edge transition">
<title>Entering_halt&#45;&gt;Halted</title>
<path fill="none" stroke="#000000" d="M362.028,-52.2759C366.4631,-74.0302 376.6001,-110.3768 397.651,-134 408.4565,-146.1258 420.0424,-138.1688 430,-151 436.777,-159.7327 440.3499,-171.2273 442.207,-181.7492"/>
<polygon fill="#000000" stroke="#000000" points="438.7572,-182.3583 443.5473,-191.8084 445.6958,-181.4337 438.7572,-182.3583"/>
<text text-anchor="start" x="397" y="-113" font-family="Helvetica,sans-Serif" font-size="10.00" fill="#000000">halted_i &#160;&#160;</text>
</g>
<!-- Halted&#45;&gt;Running -->
<g id="edge13" class="edge transition">
<title>Halted&#45;&gt;Running</title>
<path fill="none" stroke="#000000" d="M427.9515,-228.1059C416.6912,-240.8669 401.3269,-258.3939 388,-274 374.4749,-289.8382 375.5409,-298.7708 358,-310 333.5069,-325.6799 316.3678,-307.4777 294.812,-327 279.5317,-340.8389 262.7241,-394.4212 253.3566,-428.0228"/>
<polygon fill="#000000" stroke="#000000" points="249.9602,-427.1741 250.6982,-437.7432 256.7122,-429.0208 249.9602,-427.1741"/>
<text text-anchor="start" x="294" y="-330" font-family="Helvetica,sans-Serif" font-size="10.00" fill="#000000">~halted_i &#160;&#160;</text>
</g>
<!-- Halted&#45;&gt;Entering_halt -->
<g id="edge15" class="edge transition">
<title>Halted&#45;&gt;Entering_halt</title>
<path fill="none" stroke="#000000" d="M458.2383,-191.857C463.4063,-183.5402 468,-173.2614 468,-163 468,-163 468,-163 468,-75 468,-62.3053 441.7714,-52.1993 415.0466,-45.197"/>
<polygon fill="#000000" stroke="#000000" points="415.7746,-41.7715 405.2258,-42.7586 414.0877,-48.5653 415.7746,-41.7715"/>
<text text-anchor="start" x="468" y="-119" font-family="Helvetica,sans-Serif" font-size="10.00" fill="#000000">not (~halted_i) &#160;&#160;</text>
<text text-anchor="start" x="468" y="-107" font-family="Helvetica,sans-Serif" font-size="10.00" fill="#000000">not (debug_ebreak_i) &#160;&#160;</text>
</g>
<!-- Halted&#45;&gt;Wait_stall_halt -->
<g id="edge14" class="edge transition">
<title>Halted&#45;&gt;Wait_stall_halt</title>
<path fill="none" stroke="#000000" d="M415.9614,-199.9404C374.6167,-185.1067 296.3082,-157.0113 241.7288,-137.4294"/>
<polygon fill="#000000" stroke="#000000" points="242.762,-134.0817 232.1675,-133.999 240.3981,-140.6705 242.762,-134.0817"/>
<text text-anchor="start" x="345" y="-166" font-family="Helvetica,sans-Serif" font-size="10.00" fill="#000000">stall_i &#160;&#160;</text>
<text text-anchor="start" x="345" y="-154" font-family="Helvetica,sans-Serif" font-size="10.00" fill="#000000">debug_ebreak_i &#160;&#160;</text>
</g>
<!-- Wait_stall_halt&#45;&gt;Entering_halt -->
<g id="edge16" class="edge transition">
<title>Wait_stall_halt&#45;&gt;Entering_halt</title>
<path fill="none" stroke="#000000" d="M221.282,-97.8015C247.7264,-85.5505 282.7674,-69.3168 310.885,-56.2906"/>
<polygon fill="#000000" stroke="#000000" points="312.5303,-59.3857 320.1327,-52.0063 309.5878,-53.0342 312.5303,-59.3857"/>
<text text-anchor="start" x="282" y="-72" font-family="Helvetica,sans-Serif" font-size="10.00" fill="#000000">~stall_i &#160;&#160;</text>
</g>
<!-- Wait_stall_halt&#45;&gt;Wait_stall_halt -->
<g id="edge17" class="edge transition">
<title>Wait_stall_halt&#45;&gt;Wait_stall_halt</title>
<path fill="none" stroke="#000000" d="M232.1354,-120.8081C244.6477,-120.4718 254,-118.8691 254,-116 254,-113.9826 249.3764,-112.5914 242.2816,-111.8263"/>
<polygon fill="#000000" stroke="#000000" points="242.3343,-108.3228 232.1354,-111.1919 241.8975,-115.3092 242.3343,-108.3228"/>
<text text-anchor="start" x="254" y="-113" font-family="Helvetica,sans-Serif" font-size="10.00" fill="#000000">not (~stall_i) &#160;&#160;</text>
</g>
<!-- Wait_stall_step&#45;&gt;Entering_step -->
<g id="edge18" class="edge transition">
<title>Wait_stall_step&#45;&gt;Entering_step</title>
<path fill="none" stroke="#000000" d="M446.2219,-355.8015C446.3488,-345.3976 446.5107,-332.1215 446.6539,-320.3768"/>
<polygon fill="#000000" stroke="#000000" points="450.1564,-320.1896 446.7787,-310.1476 443.1569,-320.1041 450.1564,-320.1896"/>
<text text-anchor="start" x="446" y="-330" font-family="Helvetica,sans-Serif" font-size="10.00" fill="#000000">~stall_i &#160;&#160;</text>
</g>
<!-- Wait_stall_step&#45;&gt;Wait_stall_step -->
<g id="edge19" class="edge transition">
<title>Wait_stall_step&#45;&gt;Wait_stall_step</title>
<path fill="none" stroke="#000000" d="M497.5182,-378.7988C510.1211,-378.4434 519.5,-376.8438 519.5,-374 519.5,-372.0005 514.8632,-370.6161 507.7292,-369.8467"/>
<polygon fill="#000000" stroke="#000000" points="507.7191,-366.3392 497.5182,-369.2012 507.2774,-373.3252 507.7191,-366.3392"/>
<text text-anchor="start" x="519.5" y="-371" font-family="Helvetica,sans-Serif" font-size="10.00" fill="#000000">not (~stall_i) &#160;&#160;</text>
</g>
</g>
</svg>
