<?xml version="1.0" encoding="UTF-8" standalone="no"?>
<!DOCTYPE svg PUBLIC "-//W3C//DTD SVG 1.1//EN"
 "http://www.w3.org/Graphics/SVG/1.1/DTD/svg11.dtd">
<!-- Generated by graphviz version 2.40.1 (20161225.0304)
 -->
<!-- Title: state transitions Pages: 1 -->
<svg width="952pt" height="282pt"
 viewBox="0.00 0.00 951.92 282.00" xmlns="http://www.w3.org/2000/svg" xmlns:xlink="http://www.w3.org/1999/xlink">
<g id="graph0" class="graph" transform="scale(1 1) rotate(0) translate(4 278)">
<title>state transitions</title>
<polygon fill="#ffffff" stroke="transparent" points="-4,4 -4,-278 947.925,-278 947.925,4 -4,4"/>
<g id="clust1" class="cluster state regular">
<title>cluster_state_d</title>
<path fill="none" stroke="#000000" stroke-width="2" d="M20,-8C20,-8 891,-8 891,-8 897,-8 903,-14 903,-20 903,-20 903,-254 903,-254 903,-260 897,-266 891,-266 891,-266 20,-266 20,-266 14,-266 8,-260 8,-254 8,-254 8,-20 8,-20 8,-14 14,-8 20,-8"/>
<text text-anchor="start" x="436.3236" y="-247.2" font-family="Helvetica,sans-Serif" font-size="12.00" fill="#000000">state_d</text>
</g>
<!-- state_d -->
<!-- Idle -->
<g id="node2" class="node state regular">
<title>Idle</title>
<polygon fill="#ffffff" fill-opacity="0.003922" stroke="transparent" stroke-width="2" points="597,-228 541,-228 541,-192 597,-192 597,-228"/>
<text text-anchor="start" x="559.3304" y="-206.2" font-family="Helvetica,sans-Serif" font-size="12.00" fill="#000000">Idle</text>
<path fill="none" stroke="#000000" stroke-width="2" d="M553.3333,-193C553.3333,-193 584.6667,-193 584.6667,-193 590.3333,-193 596,-198.6667 596,-204.3333 596,-204.3333 596,-215.6667 596,-215.6667 596,-221.3333 590.3333,-227 584.6667,-227 584.6667,-227 553.3333,-227 553.3333,-227 547.6667,-227 542,-221.3333 542,-215.6667 542,-215.6667 542,-204.3333 542,-204.3333 542,-198.6667 547.6667,-193 553.3333,-193"/>
</g>
<!-- Go -->
<g id="node3" class="node state regular">
<title>Go</title>
<polygon fill="#ffffff" fill-opacity="0.003922" stroke="transparent" stroke-width="2" points="285,-134 229,-134 229,-98 285,-98 285,-134"/>
<text text-anchor="start" x="248.9972" y="-112.2" font-family="Helvetica,sans-Serif" font-size="12.00" fill="#000000">Go</text>
<path fill="none" stroke="#000000" stroke-width="2" d="M241.3333,-99C241.3333,-99 272.6667,-99 272.6667,-99 278.3333,-99 284,-104.6667 284,-110.3333 284,-110.3333 284,-121.6667 284,-121.6667 284,-127.3333 278.3333,-133 272.6667,-133 272.6667,-133 241.3333,-133 241.3333,-133 235.6667,-133 230,-127.3333 230,-121.6667 230,-121.6667 230,-110.3333 230,-110.3333 230,-104.6667 235.6667,-99 241.3333,-99"/>
</g>
<!-- Idle&#45;&gt;Go -->
<g id="edge1" class="edge transition">
<title>Idle&#45;&gt;Go</title>
<path fill="none" stroke="#000000" d="M540.7208,-208.9931C440.019,-205.2726 104.0541,-191.651 88.572,-175 48.9838,-132.4228 157.922,-120.5637 218.9204,-117.2663"/>
<polygon fill="#000000" stroke="#000000" points="219.1698,-120.7584 228.9876,-116.7757 218.829,-113.7667 219.1698,-120.7584"/>
<text text-anchor="start" x="88" y="-160" font-family="Helvetica,sans-Serif" font-size="10.00" fill="#000000">cmd_valid_i &amp;&amp; halted_q_aligned[hartsel] &amp;&amp; !unsupported_command &#160;&#160;</text>
</g>
<!-- Resume -->
<g id="node4" class="node state regular">
<title>Resume</title>
<polygon fill="#ffffff" fill-opacity="0.003922" stroke="transparent" stroke-width="2" points="509,-134 443,-134 443,-98 509,-98 509,-134"/>
<text text-anchor="start" x="453.665" y="-112.2" font-family="Helvetica,sans-Serif" font-size="12.00" fill="#000000">Resume</text>
<path fill="none" stroke="#000000" stroke-width="2" d="M455.3333,-99C455.3333,-99 496.6667,-99 496.6667,-99 502.3333,-99 508,-104.6667 508,-110.3333 508,-110.3333 508,-121.6667 508,-121.6667 508,-127.3333 502.3333,-133 496.6667,-133 496.6667,-133 455.3333,-133 455.3333,-133 449.6667,-133 444,-127.3333 444,-121.6667 444,-121.6667 444,-110.3333 444,-110.3333 444,-104.6667 449.6667,-99 455.3333,-99"/>
</g>
<!-- Idle&#45;&gt;Resume -->
<g id="edge2" class="edge transition">
<title>Idle&#45;&gt;Resume</title>
<path fill="none" stroke="#000000" d="M540.8051,-207.615C501.2241,-203.616 432.3108,-194.0527 417.15,-175 410.5083,-166.6534 411.8765,-160.2719 417.15,-151 421.1583,-143.9526 427.2079,-138.176 433.9267,-133.4934"/>
<polygon fill="#000000" stroke="#000000" points="435.9861,-136.3366 442.6917,-128.1338 432.3343,-130.3646 435.9861,-136.3366"/>
<text text-anchor="start" x="417" y="-166" font-family="Helvetica,sans-Serif" font-size="10.00" fill="#000000">resumereq_aligned[hartsel] &amp;&amp; !resuming_q_aligned[hartsel] &amp;&amp; &#160;&#160;</text>
<text text-anchor="start" x="417" y="-154" font-family="Helvetica,sans-Serif" font-size="10.00" fill="#000000">!haltreq_aligned[hartsel] &amp;&amp; halted_q_aligned[hartsel] &#160;&#160;</text>
</g>
<!-- CmdExecuting -->
<g id="node5" class="node state regular">
<title>CmdExecuting</title>
<polygon fill="#ffffff" fill-opacity="0.003922" stroke="transparent" stroke-width="2" points="534,-52 434,-52 434,-16 534,-16 534,-52"/>
<text text-anchor="start" x="444.994" y="-30.2" font-family="Helvetica,sans-Serif" font-size="12.00" fill="#000000">CmdExecuting</text>
<path fill="none" stroke="#000000" stroke-width="2" d="M446.3333,-17C446.3333,-17 521.6667,-17 521.6667,-17 527.3333,-17 533,-22.6667 533,-28.3333 533,-28.3333 533,-39.6667 533,-39.6667 533,-45.3333 527.3333,-51 521.6667,-51 521.6667,-51 446.3333,-51 446.3333,-51 440.6667,-51 435,-45.3333 435,-39.6667 435,-39.6667 435,-28.3333 435,-28.3333 435,-22.6667 440.6667,-17 446.3333,-17"/>
</g>
<!-- Go&#45;&gt;CmdExecuting -->
<g id="edge3" class="edge transition">
<title>Go&#45;&gt;CmdExecuting</title>
<path fill="none" stroke="#000000" d="M285.2907,-105.7804C319.9479,-93.2611 379.584,-71.7186 424.5042,-55.4919"/>
<polygon fill="#000000" stroke="#000000" points="425.9229,-58.7008 434.1389,-52.0115 423.5446,-52.1172 425.9229,-58.7008"/>
<text text-anchor="start" x="385" y="-72" font-family="Helvetica,sans-Serif" font-size="10.00" fill="#000000">going &#160;&#160;</text>
</g>
<!-- Resume&#45;&gt;Idle -->
<g id="edge4" class="edge transition">
<title>Resume&#45;&gt;Idle</title>
<path fill="none" stroke="#000000" d="M509.3304,-118.577C571.0358,-123.6876 698.0047,-135.9259 711,-151 717.9648,-159.0789 717.5783,-166.6034 711,-175 704.5178,-183.2739 647.0118,-195.4875 607.2005,-203.0827"/>
<polygon fill="#000000" stroke="#000000" points="606.4313,-199.6659 597.2514,-204.9555 607.7263,-206.5451 606.4313,-199.6659"/>
<text text-anchor="start" x="716" y="-160" font-family="Helvetica,sans-Serif" font-size="10.00" fill="#000000">resuming_q_aligned[hartsel] &#160;&#160;</text>
</g>
<!-- CmdExecuting&#45;&gt;Idle -->
<g id="edge5" class="edge transition">
<title>CmdExecuting&#45;&gt;Idle</title>
<path fill="none" stroke="#000000" d="M534.0611,-42.3484C626.1563,-58.8374 816.564,-98.5767 855,-151 861.307,-159.6023 862.204,-167.1336 855,-175 840.4609,-190.876 683.3183,-189.0062 662,-192 643.928,-194.5379 624.0489,-198.2577 607.3251,-201.658"/>
<polygon fill="#000000" stroke="#000000" points="606.4469,-198.2655 597.3642,-203.7204 607.8662,-205.1201 606.4469,-198.2655"/>
<text text-anchor="start" x="835" y="-113" font-family="Helvetica,sans-Serif" font-size="10.00" fill="#000000">halted_aligned[hartsel] &#160;&#160;</text>
</g>
</g>
</svg>
