<?xml version="1.0" encoding="UTF-8" standalone="no"?>
<!DOCTYPE svg PUBLIC "-//W3C//DTD SVG 1.1//EN"
 "http://www.w3.org/Graphics/SVG/1.1/DTD/svg11.dtd">
<!-- Generated by graphviz version 2.40.1 (20161225.0304)
 -->
<!-- Title: state transitions Pages: 1 -->
<svg width="947pt" height="576pt"
 viewBox="0.00 0.00 947.03 576.00" xmlns="http://www.w3.org/2000/svg" xmlns:xlink="http://www.w3.org/1999/xlink">
<g id="graph0" class="graph" transform="scale(1 1) rotate(0) translate(4 572)">
<title>state transitions</title>
<polygon fill="#ffffff" stroke="transparent" points="-4,4 -4,-572 943.034,-572 943.034,4 -4,4"/>
<g id="clust1" class="cluster state regular">
<title>cluster_state_d</title>
<path fill="none" stroke="#000000" stroke-width="2" d="M20,-8C20,-8 878,-8 878,-8 884,-8 890,-14 890,-20 890,-20 890,-548 890,-548 890,-554 884,-560 878,-560 878,-560 20,-560 20,-560 14,-560 8,-554 8,-548 8,-548 8,-20 8,-20 8,-14 14,-8 20,-8"/>
<text text-anchor="start" x="429.8236" y="-541.2" font-family="Helvetica,sans-Serif" font-size="12.00" fill="#000000">state_d</text>
</g>
<!-- state_d -->
<!-- Running -->
<g id="node2" class="node state regular">
<title>Running</title>
<polygon fill="#ffffff" fill-opacity="0.003922" stroke="transparent" stroke-width="2" points="515,-492 449,-492 449,-456 515,-456 515,-492"/>
<text text-anchor="start" x="459.6602" y="-470.2" font-family="Helvetica,sans-Serif" font-size="12.00" fill="#000000">Running</text>
<path fill="none" stroke="#000000" stroke-width="2" d="M461.3333,-457C461.3333,-457 502.6667,-457 502.6667,-457 508.3333,-457 514,-462.6667 514,-468.3333 514,-468.3333 514,-479.6667 514,-479.6667 514,-485.3333 508.3333,-491 502.6667,-491 502.6667,-491 461.3333,-491 461.3333,-491 455.6667,-491 450,-485.3333 450,-479.6667 450,-479.6667 450,-468.3333 450,-468.3333 450,-462.6667 455.6667,-457 461.3333,-457"/>
</g>
<!-- Running&#45;&gt;Running -->
<g id="edge9" class="edge transition">
<title>Running&#45;&gt;Running</title>
<path fill="none" stroke="#000000" d="M515.0221,-484.484C527.1032,-484.7681 537,-481.2734 537,-474 537,-468.8859 532.1072,-465.6399 525.0025,-464.2621"/>
<polygon fill="#000000" stroke="#000000" points="525.2553,-460.7713 515.0221,-463.516 524.7334,-467.7518 525.2553,-460.7713"/>
<text text-anchor="start" x="537" y="-513" font-family="Helvetica,sans-Serif" font-size="10.00" fill="#000000">not (debug_trigger_match_i &amp;&amp; ~flush_d &amp;&amp; stall_i) &#160;&#160;</text>
<text text-anchor="start" x="537" y="-501" font-family="Helvetica,sans-Serif" font-size="10.00" fill="#000000">not (debug_trigger_match_i &amp;&amp; ~flush_d) &#160;&#160;</text>
<text text-anchor="start" x="537" y="-489" font-family="Helvetica,sans-Serif" font-size="10.00" fill="#000000">not (debug_strobe_i &amp;&amp; stall_i) &#160;&#160;</text>
<text text-anchor="start" x="537" y="-477" font-family="Helvetica,sans-Serif" font-size="10.00" fill="#000000">not (debug_strobe_i) &#160;&#160;</text>
<text text-anchor="start" x="537" y="-465" font-family="Helvetica,sans-Serif" font-size="10.00" fill="#000000">not (debug_single_step_i &amp;&amp; ~halted_i &amp;&amp; stall_i) &#160;&#160;</text>
<text text-anchor="start" x="537" y="-453" font-family="Helvetica,sans-Serif" font-size="10.00" fill="#000000">not (debug_single_step_i) &#160;&#160;</text>
<text text-anchor="start" x="537" y="-441" font-family="Helvetica,sans-Serif" font-size="10.00" fill="#000000">not (debug_ebreak_i &amp;&amp; stall_i) &#160;&#160;</text>
<text text-anchor="start" x="537" y="-429" font-family="Helvetica,sans-Serif" font-size="10.00" fill="#000000">not (debug_ebreak_i) &#160;&#160;</text>
</g>
<!-- Entering_step -->
<g id="node3" class="node state regular">
<title>Entering_step</title>
<polygon fill="#ffffff" fill-opacity="0.003922" stroke="transparent" stroke-width="2" points="774,-298 678,-298 678,-262 774,-262 774,-298"/>
<text text-anchor="start" x="688.9872" y="-276.2" font-family="Helvetica,sans-Serif" font-size="12.00" fill="#000000">Entering_step</text>
<path fill="none" stroke="#000000" stroke-width="2" d="M690.3333,-263C690.3333,-263 761.6667,-263 761.6667,-263 767.3333,-263 773,-268.6667 773,-274.3333 773,-274.3333 773,-285.6667 773,-285.6667 773,-291.3333 767.3333,-297 761.6667,-297 761.6667,-297 690.3333,-297 690.3333,-297 684.6667,-297 679,-291.3333 679,-285.6667 679,-285.6667 679,-274.3333 679,-274.3333 679,-268.6667 684.6667,-263 690.3333,-263"/>
</g>
<!-- Running&#45;&gt;Entering_step -->
<g id="edge6" class="edge transition">
<title>Running&#45;&gt;Entering_step</title>
<path fill="none" stroke="#000000" d="M492.3187,-455.9671C511.7855,-422.1752 552.8836,-351.9937 562.96,-344 581.3612,-329.4021 591.0242,-335.2926 613,-327 633.5003,-319.2642 655.8212,-310.134 675.1692,-301.9881"/>
<polygon fill="#000000" stroke="#000000" points="676.5622,-305.1992 684.4075,-298.0788 673.8341,-298.7527 676.5622,-305.1992"/>
<text text-anchor="start" x="562" y="-359" font-family="Helvetica,sans-Serif" font-size="10.00" fill="#000000">debug_single_step_i &#160;&#160;</text>
</g>
<!-- Entering_halt -->
<g id="node4" class="node state regular">
<title>Entering_halt</title>
<polygon fill="#ffffff" fill-opacity="0.003922" stroke="transparent" stroke-width="2" points="609,-52 517,-52 517,-16 609,-16 609,-52"/>
<text text-anchor="start" x="527.6558" y="-30.2" font-family="Helvetica,sans-Serif" font-size="12.00" fill="#000000">Entering_halt</text>
<path fill="none" stroke="#000000" stroke-width="2" d="M529.3333,-17C529.3333,-17 596.6667,-17 596.6667,-17 602.3333,-17 608,-22.6667 608,-28.3333 608,-28.3333 608,-39.6667 608,-39.6667 608,-45.3333 602.3333,-51 596.6667,-51 596.6667,-51 529.3333,-51 529.3333,-51 523.6667,-51 518,-45.3333 518,-39.6667 518,-39.6667 518,-28.3333 518,-28.3333 518,-22.6667 523.6667,-17 529.3333,-17"/>
</g>
<!-- Running&#45;&gt;Entering_halt -->
<g id="edge2" class="edge transition">
<title>Running&#45;&gt;Entering_halt</title>
<path fill="none" stroke="#000000" d="M448.9311,-472.441C342.6977,-466.9975 17,-446.7417 17,-403 17,-403 17,-403 17,-306.5 17,-268.8794 38,-262.1206 38,-224.5 38,-224.5 38,-224.5 38,-75 38,-51.6942 371.1743,-39.5012 506.6903,-35.5058"/>
<polygon fill="#000000" stroke="#000000" points="506.9757,-38.999 516.8699,-35.2101 506.7725,-32.002 506.9757,-38.999"/>
<text text-anchor="start" x="38" y="-236" font-family="Helvetica,sans-Serif" font-size="10.00" fill="#000000">debug_trigger_match_i &amp;&amp; ~flush_d &#160;&#160;</text>
</g>
<!-- Running&#45;&gt;Entering_halt -->
<g id="edge4" class="edge transition">
<title>Running&#45;&gt;Entering_halt</title>
<path fill="none" stroke="#000000" d="M482,-455.9071C482,-441.559 482,-420.9965 482,-403 482,-403 482,-403 482,-335.5 482,-318.9821 498.4615,-322.8404 513,-315 521.9375,-310.1801 524.1687,-308.5408 534,-306 551.084,-301.5848 601.1681,-311.0906 613,-298 669.0757,-235.959 551.1357,-246.8558 548.746,-245 508.5974,-213.822 498,-193.3329 498,-142.5 498,-142.5 498,-142.5 498,-75 498,-66.2734 502.243,-59.3297 508.5609,-53.8274"/>
<polygon fill="#000000" stroke="#000000" points="510.6502,-56.6367 516.8007,-48.0098 506.6129,-50.9183 510.6502,-56.6367"/>
<text text-anchor="start" x="548" y="-236" font-family="Helvetica,sans-Serif" font-size="10.00" fill="#000000">debug_strobe_i &#160;&#160;</text>
</g>
<!-- Running&#45;&gt;Entering_halt -->
<g id="edge8" class="edge transition">
<title>Running&#45;&gt;Entering_halt</title>
<path fill="none" stroke="#000000" d="M515.3322,-469.8232C611.2278,-457.5854 881,-421.5132 881,-403 881,-403 881,-403 881,-306.5 881,-286.0157 876.8345,-280.9269 869,-262 851.2579,-219.1378 817,-217.8891 817,-171.5 817,-171.5 817,-171.5 817,-75 817,-55.1358 694.3623,-43.0813 619.5181,-37.5742"/>
<polygon fill="#000000" stroke="#000000" points="619.5171,-34.0652 609.2922,-36.8404 619.016,-41.0472 619.5171,-34.0652"/>
<text text-anchor="start" x="859" y="-236" font-family="Helvetica,sans-Serif" font-size="10.00" fill="#000000">debug_ebreak_i &#160;&#160;</text>
</g>
<!-- Wait_stall_halt -->
<g id="node6" class="node state regular">
<title>Wait_stall_halt</title>
<polygon fill="#ffffff" fill-opacity="0.003922" stroke="transparent" stroke-width="2" points="394,-134 294,-134 294,-98 394,-98 394,-134"/>
<text text-anchor="start" x="304.9964" y="-112.2" font-family="Helvetica,sans-Serif" font-size="12.00" fill="#000000">Wait_stall_halt</text>
<path fill="none" stroke="#000000" stroke-width="2" d="M306.3333,-99C306.3333,-99 381.6667,-99 381.6667,-99 387.3333,-99 393,-104.6667 393,-110.3333 393,-110.3333 393,-121.6667 393,-121.6667 393,-127.3333 387.3333,-133 381.6667,-133 381.6667,-133 306.3333,-133 306.3333,-133 300.6667,-133 295,-127.3333 295,-121.6667 295,-121.6667 295,-110.3333 295,-110.3333 295,-104.6667 300.6667,-99 306.3333,-99"/>
</g>
<!-- Running&#45;&gt;Wait_stall_halt -->
<g id="edge1" class="edge transition">
<title>Running&#45;&gt;Wait_stall_halt</title>
<path fill="none" stroke="#000000" d="M448.9961,-462.0524C424.7437,-450.9077 396,-431.6548 396,-403 396,-403 396,-403 396,-157 396,-151.1081 393.9159,-145.932 390.5822,-141.4214"/>
<polygon fill="#000000" stroke="#000000" points="392.8808,-138.7635 383.4123,-134.0098 387.8497,-143.6306 392.8808,-138.7635"/>
<text text-anchor="start" x="396" y="-277" font-family="Helvetica,sans-Serif" font-size="10.00" fill="#000000">debug_trigger_match_i &amp;&amp; ~flush_d &amp;&amp; stall_i &#160;&#160;</text>
</g>
<!-- Running&#45;&gt;Wait_stall_halt -->
<g id="edge3" class="edge transition">
<title>Running&#45;&gt;Wait_stall_halt</title>
<path fill="none" stroke="#000000" d="M448.7963,-471.6255C380.3674,-465.8175 230,-447.9419 230,-403 230,-403 230,-403 230,-306.5 230,-268.6491 253,-262.3509 253,-224.5 253,-224.5 253,-224.5 253,-157 253,-148.2642 267.1164,-140.0496 284.2295,-133.3008"/>
<polygon fill="#000000" stroke="#000000" points="285.8024,-136.4513 293.9744,-129.7083 283.381,-129.8834 285.8024,-136.4513"/>
<text text-anchor="start" x="243" y="-277" font-family="Helvetica,sans-Serif" font-size="10.00" fill="#000000">debug_strobe_i &amp;&amp; stall_i &#160;&#160;</text>
</g>
<!-- Running&#45;&gt;Wait_stall_halt -->
<g id="edge7" class="edge transition">
<title>Running&#45;&gt;Wait_stall_halt</title>
<path fill="none" stroke="#000000" d="M448.6922,-470.1239C349.3533,-458.3432 62,-422.574 62,-403 62,-403 62,-403 62,-306.5 62,-280.3429 77.6241,-274.6553 100.516,-262 152.5767,-233.2193 229,-283.9865 229,-224.5 229,-224.5 229,-224.5 229,-157 229,-143.8223 256.1293,-133.7733 284.0344,-126.9225"/>
<polygon fill="#000000" stroke="#000000" points="284.9449,-130.3043 293.8939,-124.6328 283.3613,-123.4857 284.9449,-130.3043"/>
<text text-anchor="start" x="100" y="-277" font-family="Helvetica,sans-Serif" font-size="10.00" fill="#000000">debug_ebreak_i &amp;&amp; stall_i &#160;&#160;</text>
</g>
<!-- Wait_stall_step -->
<g id="node7" class="node state regular">
<title>Wait_stall_step</title>
<polygon fill="#ffffff" fill-opacity="0.003922" stroke="transparent" stroke-width="2" points="776.5,-380 673.5,-380 673.5,-344 776.5,-344 776.5,-380"/>
<text text-anchor="start" x="684.8278" y="-358.2" font-family="Helvetica,sans-Serif" font-size="12.00" fill="#000000">Wait_stall_step</text>
<path fill="none" stroke="#000000" stroke-width="2" d="M685.8333,-345C685.8333,-345 764.1667,-345 764.1667,-345 769.8333,-345 775.5,-350.6667 775.5,-356.3333 775.5,-356.3333 775.5,-367.6667 775.5,-367.6667 775.5,-373.3333 769.8333,-379 764.1667,-379 764.1667,-379 685.8333,-379 685.8333,-379 680.1667,-379 674.5,-373.3333 674.5,-367.6667 674.5,-367.6667 674.5,-356.3333 674.5,-356.3333 674.5,-350.6667 680.1667,-345 685.8333,-345"/>
</g>
<!-- Running&#45;&gt;Wait_stall_step -->
<g id="edge5" class="edge transition">
<title>Running&#45;&gt;Wait_stall_step</title>
<path fill="none" stroke="#000000" d="M515.025,-458.7786C556.6315,-439.6019 628.4705,-406.491 676.3615,-384.4178"/>
<polygon fill="#000000" stroke="#000000" points="677.9876,-387.5222 685.6043,-380.1577 675.0574,-381.165 677.9876,-387.5222"/>
<text text-anchor="start" x="649" y="-400" font-family="Helvetica,sans-Serif" font-size="10.00" fill="#000000">debug_single_step_i &amp;&amp; ~halted_i &amp;&amp; stall_i &#160;&#160;</text>
</g>
<!-- Entering_step&#45;&gt;Entering_step -->
<g id="edge11" class="edge transition">
<title>Entering_step&#45;&gt;Entering_step</title>
<path fill="none" stroke="#000000" d="M774.0939,-284.8247C786.5828,-284.5282 796,-282.9199 796,-280 796,-277.9469 791.3443,-276.5423 784.2386,-275.7862"/>
<polygon fill="#000000" stroke="#000000" points="784.2863,-272.2828 774.0939,-275.1753 783.8654,-279.2702 784.2863,-272.2828"/>
<text text-anchor="start" x="796" y="-277" font-family="Helvetica,sans-Serif" font-size="10.00" fill="#000000">not (halted_i) &#160;&#160;</text>
</g>
<!-- Halted -->
<g id="node5" class="node state regular">
<title>Halted</title>
<polygon fill="#ffffff" fill-opacity="0.003922" stroke="transparent" stroke-width="2" points="629,-216 573,-216 573,-180 629,-180 629,-216"/>
<text text-anchor="start" x="583.6636" y="-194.2" font-family="Helvetica,sans-Serif" font-size="12.00" fill="#000000">Halted</text>
<path fill="none" stroke="#000000" stroke-width="2" d="M585.3333,-181C585.3333,-181 616.6667,-181 616.6667,-181 622.3333,-181 628,-186.6667 628,-192.3333 628,-192.3333 628,-203.6667 628,-203.6667 628,-209.3333 622.3333,-215 616.6667,-215 616.6667,-215 585.3333,-215 585.3333,-215 579.6667,-215 574,-209.3333 574,-203.6667 574,-203.6667 574,-192.3333 574,-192.3333 574,-186.6667 579.6667,-181 585.3333,-181"/>
</g>
<!-- Entering_step&#45;&gt;Halted -->
<g id="edge10" class="edge transition">
<title>Entering_step&#45;&gt;Halted</title>
<path fill="none" stroke="#000000" d="M708.1296,-261.9753C695.6889,-250.1159 678.2891,-234.8401 661,-224 653.9568,-219.584 646.0337,-215.5669 638.3104,-212.082"/>
<polygon fill="#000000" stroke="#000000" points="639.6305,-208.8398 629.0612,-208.104 636.8647,-215.2703 639.6305,-208.8398"/>
<text text-anchor="start" x="688" y="-236" font-family="Helvetica,sans-Serif" font-size="10.00" fill="#000000">halted_i &#160;&#160;</text>
</g>
<!-- Entering_halt&#45;&gt;Entering_halt -->
<g id="edge13" class="edge transition">
<title>Entering_halt&#45;&gt;Entering_halt</title>
<path fill="none" stroke="#000000" d="M609.0842,-38.839C621.5309,-38.5837 631,-36.9707 631,-34 631,-31.9112 626.3186,-30.4937 619.2124,-29.7474"/>
<polygon fill="#000000" stroke="#000000" points="619.2698,-26.2449 609.0842,-29.161 618.8651,-33.2332 619.2698,-26.2449"/>
<text text-anchor="start" x="631" y="-31" font-family="Helvetica,sans-Serif" font-size="10.00" fill="#000000">not (halted_i) &#160;&#160;</text>
</g>
<!-- Entering_halt&#45;&gt;Halted -->
<g id="edge12" class="edge transition">
<title>Entering_halt&#45;&gt;Halted</title>
<path fill="none" stroke="#000000" d="M576.3675,-52.2906C591.6098,-74.3846 615.6277,-113.2973 625,-151 626.6632,-157.6908 625.275,-164.5091 622.4854,-170.8018"/>
<polygon fill="#000000" stroke="#000000" points="619.4091,-169.1322 617.5881,-179.5694 625.5203,-172.5458 619.4091,-169.1322"/>
<text text-anchor="start" x="619" y="-113" font-family="Helvetica,sans-Serif" font-size="10.00" fill="#000000">halted_i &#160;&#160;</text>
</g>
<!-- Halted&#45;&gt;Running -->
<g id="edge14" class="edge transition">
<title>Halted&#45;&gt;Running</title>
<path fill="none" stroke="#000000" d="M619.7301,-216.3629C623.991,-221.4009 628.1082,-227.109 631,-233 643.784,-259.0432 655.8848,-275.9763 637,-298 604.7629,-335.5954 563.9622,-282.1795 526.875,-315 507.3625,-332.2676 492.9436,-405.1108 486.2164,-445.9476"/>
<polygon fill="#000000" stroke="#000000" points="482.7597,-445.3993 484.6362,-455.8266 489.6718,-446.505 482.7597,-445.3993"/>
<text text-anchor="start" x="526" y="-318" font-family="Helvetica,sans-Serif" font-size="10.00" fill="#000000">sys_jump_dret_i &#160;&#160;</text>
</g>
<!-- Halted&#45;&gt;Entering_halt -->
<g id="edge16" class="edge transition">
<title>Halted&#45;&gt;Entering_halt</title>
<path fill="none" stroke="#000000" d="M629.2232,-193.5047C662.693,-187.358 714,-174.9999 714,-157 714,-157 714,-157 714,-75 714,-54.6298 662.1745,-44.0554 619.247,-38.7905"/>
<polygon fill="#000000" stroke="#000000" points="619.4604,-35.292 609.1255,-37.6243 618.6591,-42.246 619.4604,-35.292"/>
<text text-anchor="start" x="714" y="-113" font-family="Helvetica,sans-Serif" font-size="10.00" fill="#000000">debug_ebreak_i &#160;&#160;</text>
</g>
<!-- Halted&#45;&gt;Halted -->
<g id="edge17" class="edge transition">
<title>Halted&#45;&gt;Halted</title>
<path fill="none" stroke="#000000" d="M629.0183,-202.8247C640.888,-203.1883 651,-201.5801 651,-198 651,-195.5387 646.2205,-194.0094 639.3762,-193.4121"/>
<polygon fill="#000000" stroke="#000000" points="639.0957,-189.9049 629.0183,-193.1753 638.9356,-196.903 639.0957,-189.9049"/>
<text text-anchor="start" x="651" y="-207" font-family="Helvetica,sans-Serif" font-size="10.00" fill="#000000">not (sys_jump_dret_i) &#160;&#160;</text>
<text text-anchor="start" x="651" y="-195" font-family="Helvetica,sans-Serif" font-size="10.00" fill="#000000">not (debug_ebreak_i &amp;&amp; stall_i) &#160;&#160;</text>
<text text-anchor="start" x="651" y="-183" font-family="Helvetica,sans-Serif" font-size="10.00" fill="#000000">not (debug_ebreak_i) &#160;&#160;</text>
</g>
<!-- Halted&#45;&gt;Wait_stall_halt -->
<g id="edge15" class="edge transition">
<title>Halted&#45;&gt;Wait_stall_halt</title>
<path fill="none" stroke="#000000" d="M572.9198,-188.0128C558.1125,-182.8141 539.6188,-176.4276 523,-171 483.6217,-158.1392 439.0972,-144.455 404.3053,-133.9534"/>
<polygon fill="#000000" stroke="#000000" points="404.8854,-130.4729 394.3009,-130.9403 402.8667,-137.1755 404.8854,-130.4729"/>
<text text-anchor="start" x="496" y="-154" font-family="Helvetica,sans-Serif" font-size="10.00" fill="#000000">debug_ebreak_i &amp;&amp; stall_i &#160;&#160;</text>
</g>
<!-- Wait_stall_halt&#45;&gt;Entering_halt -->
<g id="edge18" class="edge transition">
<title>Wait_stall_halt&#45;&gt;Entering_halt</title>
<path fill="none" stroke="#000000" d="M382.9436,-97.933C403.3775,-88.7503 428.95,-77.7205 452.27,-69 469.9563,-62.3862 489.5221,-55.9272 507.2249,-50.3949"/>
<polygon fill="#000000" stroke="#000000" points="508.324,-53.7186 516.8445,-47.4216 506.2568,-47.0308 508.324,-53.7186"/>
<text text-anchor="start" x="452" y="-72" font-family="Helvetica,sans-Serif" font-size="10.00" fill="#000000">~stall_i &#160;&#160;</text>
</g>
<!-- Wait_stall_halt&#45;&gt;Wait_stall_halt -->
<g id="edge19" class="edge transition">
<title>Wait_stall_halt&#45;&gt;Wait_stall_halt</title>
<path fill="none" stroke="#000000" d="M394.1354,-120.8081C406.6477,-120.4718 416,-118.8691 416,-116 416,-113.9826 411.3764,-112.5914 404.2816,-111.8263"/>
<polygon fill="#000000" stroke="#000000" points="404.3343,-108.3228 394.1354,-111.1919 403.8975,-115.3092 404.3343,-108.3228"/>
<text text-anchor="start" x="416" y="-113" font-family="Helvetica,sans-Serif" font-size="10.00" fill="#000000">not (~stall_i) &#160;&#160;</text>
</g>
<!-- Wait_stall_step&#45;&gt;Entering_step -->
<g id="edge20" class="edge transition">
<title>Wait_stall_step&#45;&gt;Entering_step</title>
<path fill="none" stroke="#000000" d="M725.2219,-343.8015C725.3488,-333.3976 725.5107,-320.1215 725.6539,-308.3768"/>
<polygon fill="#000000" stroke="#000000" points="729.1564,-308.1896 725.7787,-298.1476 722.1569,-308.1041 729.1564,-308.1896"/>
<text text-anchor="start" x="725" y="-318" font-family="Helvetica,sans-Serif" font-size="10.00" fill="#000000">~stall_i &#160;&#160;</text>
</g>
<!-- Wait_stall_step&#45;&gt;Wait_stall_step -->
<g id="edge21" class="edge transition">
<title>Wait_stall_step&#45;&gt;Wait_stall_step</title>
<path fill="none" stroke="#000000" d="M776.5182,-366.7988C789.1211,-366.4434 798.5,-364.8438 798.5,-362 798.5,-360.0005 793.8632,-358.6161 786.7292,-357.8467"/>
<polygon fill="#000000" stroke="#000000" points="786.7191,-354.3392 776.5182,-357.2012 786.2774,-361.3252 786.7191,-354.3392"/>
<text text-anchor="start" x="798.5" y="-359" font-family="Helvetica,sans-Serif" font-size="10.00" fill="#000000">not (~stall_i) &#160;&#160;</text>
</g>
</g>
</svg>
